<svg id="Layer_1" data-name="Layer 1" xmlns="http://www.w3.org/2000/svg" viewBox="0 0 122.88 113.15"><defs><style>.cls-1{fill-rule:evenodd;}</style></defs><title>download-to-storage</title><path class="cls-1" d="M4.07,75H118.81a4.09,4.09,0,0,1,4.07,4.07v30a4.09,4.09,0,0,1-4.07,4.07H4.07A4.09,4.09,0,0,1,0,109.08v-30A4.08,4.08,0,0,1,4.07,75Zm101,13.85a5.21,5.21,0,1,1-5.21,5.21,5.21,5.21,0,0,1,5.21-5.21Zm-92.51.06H60.73v10.3H12.58V88.94ZM84,88.88a5.21,5.21,0,1,1-5.21,5.21A5.21,5.21,0,0,1,84,88.88ZM61.44,65.16,96.22,24.79H74.63V0H48.25V24.79H26.65L61.44,65.16Z"/></svg>